<svg xmlns="http://www.w3.org/2000/svg" viewBox="0 0 25 30">
    <defs>
        <style>
            .cls-1 {
                fill: #D9A900;
            }

            .cls-2 {
                fill: #e8e8e8;
            }

            .cls-3 {
                fill: #1d1d1d;
            }
        </style>
    </defs>
    <g id="Camada_2" data-name="Camada 2">
        <g id="futflix">
            <g id="logo">
                <path class="cls-1"
                    d="M23.88,12.94,3.35.32A2.24,2.24,0,0,0,0,2.38V27.62a2.24,2.24,0,0,0,3.35,2.06L23.88,17.06A2.46,2.46,0,0,0,23.88,12.94Z" />
                <path class="cls-2"
                    d="M5,15A10,10,0,0,0,24.82,16.9h0A10,10,0,1,0,5.18,13.12c0,.25-.09.51-.12.77A10.09,10.09,0,0,0,5,15Z" />
                <polygon class="cls-3" points="11.52 16.74 6.98 16.73 6.98 20.23 10.62 23 13.83 20.7 11.52 16.74" />
                <polygon class="cls-3" points="15.65 7.74 12.14 10.69 13.86 14.94 18.43 14.62 19.54 10.17 15.65 7.74" />
                <path class="cls-3" d="M5.06,13.89l2.34-.17,1-4.12L7.14,8.8A9.92,9.92,0,0,0,5.06,13.89Z" />
                <path class="cls-3" d="M21,20.7l1.55.9a10,10,0,0,0,2.32-4.7h0l-.33-1.22-2.9.49Z" />
                <path class="cls-3" d="M10,6.3l1.49.48,1.1-1.52A9.83,9.83,0,0,0,10,6.3Z" />
                <path class="cls-3" d="M22.13,8V10.9l2.3.74A10,10,0,0,0,22.13,8Z" />
            </g>
        </g>
    </g>
</svg>