<svg width="46" height="32" viewBox="0 0 46 32" fill="none" xmlns="http://www.w3.org/2000/svg">
<path d="M44.7563 4.99718C44.2296 3.02917 42.6829 1.4826 40.7149 0.955786C37.1515 2.86102e-07 22.856 0 22.856 0C22.856 0 8.56067 2.86102e-07 4.99717 0.955786C3.02917 1.4826 1.4826 3.02917 0.955786 4.99718C2.86102e-07 8.56067 0 16 0 16C0 16 2.86102e-07 23.4394 0.955786 27.0029C1.4826 28.9709 3.02917 30.5174 4.99717 31.0442C8.56067 32 22.856 32 22.856 32C22.856 32 37.1515 32 40.7149 31.0442C42.6829 30.5174 44.2296 28.9709 44.7563 27.0029C45.7122 23.4394 45.7122 16 45.7122 16C45.7122 16 45.7083 8.56067 44.7563 4.99718Z" fill="#FF0000"/>
<path d="M18.2806 22.8566L30.1564 16.0006L18.2806 9.14453V22.8566Z" fill="white"/>
</svg>
