<svg width="33" height="32" viewBox="0 0 33 32" fill="none" xmlns="http://www.w3.org/2000/svg">
<path d="M16.0096 0C9.32791 0 7.37378 0.00689433 6.99393 0.0384047C5.62274 0.152384 4.7695 0.368271 3.83994 0.83108C3.12357 1.1868 2.55859 1.59915 2.00101 2.17717C0.985537 3.23129 0.370108 4.52814 0.14732 6.06968C0.0390036 6.81805 0.00749465 6.97068 0.00109411 10.7933C-0.00136764 12.0675 0.00109411 13.7444 0.00109411 15.9937C0.00109411 22.67 0.00847274 24.6221 0.0404754 25.0013C0.151254 26.3355 0.360512 27.175 0.803626 28.0932C1.65047 29.8509 3.26783 31.1704 5.17323 31.6627C5.83297 31.8326 6.56165 31.9261 7.49712 31.9705C7.89346 31.9877 11.9332 32 15.9754 32C20.0175 32 24.0597 31.9951 24.4462 31.9754C25.5294 31.9244 26.1584 31.84 26.8538 31.6603C28.7715 31.1655 30.3593 29.8657 31.2234 28.0834C31.6579 27.1873 31.8782 26.3158 31.9779 25.0512C31.9996 24.7755 32.0087 20.3796 32.0087 15.9895C32.0087 11.5988 31.9989 7.21095 31.9772 6.93523C31.8763 5.6502 31.6559 4.78613 31.2074 3.87282C30.8394 3.12519 30.4307 2.56687 29.8374 1.99599C28.7786 0.984707 27.4838 0.369264 25.9408 0.146722C25.1931 0.0386515 25.0442 0.00664672 21.2186 0H16.0096Z" fill="url(#paint0_radial_35_5)"/>
<path d="M16.0096 0C9.32791 0 7.37378 0.00689433 6.99393 0.0384047C5.62274 0.152384 4.7695 0.368271 3.83994 0.83108C3.12357 1.1868 2.55859 1.59915 2.00101 2.17717C0.985537 3.23129 0.370108 4.52814 0.14732 6.06968C0.0390036 6.81805 0.00749465 6.97068 0.00109411 10.7933C-0.00136764 12.0675 0.00109411 13.7444 0.00109411 15.9937C0.00109411 22.67 0.00847274 24.6221 0.0404754 25.0013C0.151254 26.3355 0.360512 27.175 0.803626 28.0932C1.65047 29.8509 3.26783 31.1704 5.17323 31.6627C5.83297 31.8326 6.56165 31.9261 7.49712 31.9705C7.89346 31.9877 11.9332 32 15.9754 32C20.0175 32 24.0597 31.9951 24.4462 31.9754C25.5294 31.9244 26.1584 31.84 26.8538 31.6603C28.7715 31.1655 30.3593 29.8657 31.2234 28.0834C31.6579 27.1873 31.8782 26.3158 31.9779 25.0512C31.9996 24.7755 32.0087 20.3796 32.0087 15.9895C32.0087 11.5988 31.9989 7.21095 31.9772 6.93523C31.8763 5.6502 31.6559 4.78613 31.2074 3.87282C30.8394 3.12519 30.4307 2.56687 29.8374 1.99599C28.7786 0.984707 27.4838 0.369264 25.9408 0.146722C25.1931 0.0386515 25.0442 0.00664672 21.2186 0H16.0096Z" fill="url(#paint1_radial_35_5)"/>
<path d="M16.0022 4.185C12.793 4.185 12.3903 4.19902 11.1299 4.25638C9.87193 4.31399 9.01329 4.51315 8.26196 4.80536C7.48479 5.10717 6.82552 5.51089 6.16873 6.16793C5.51144 6.82473 5.10772 7.48399 4.80492 8.26091C4.51198 9.01248 4.31258 9.87139 4.25596 11.1289C4.19959 12.3893 4.18481 12.7922 4.18481 16.0014C4.18481 19.2105 4.19909 19.612 4.2562 20.8724C4.31405 22.1304 4.5132 22.9891 4.80516 23.7404C5.10722 24.5175 5.51095 25.1768 6.16799 25.8336C6.82454 26.4909 7.48379 26.8956 8.26047 27.1974C9.01229 27.4896 9.8712 27.6888 11.1289 27.7464C12.3893 27.8037 12.7918 27.8178 16.0007 27.8178C19.2101 27.8178 19.6116 27.8037 20.872 27.7464C22.1299 27.6888 22.9896 27.4896 23.7414 27.1974C24.5183 26.8956 25.1766 26.4909 25.8332 25.8336C26.4904 25.1768 26.8942 24.5175 27.197 23.7406C27.4874 22.989 27.6868 22.1302 27.7459 20.8727C27.8025 19.6123 27.8173 19.2105 27.8173 16.0014C27.8173 12.7922 27.8025 12.3895 27.7459 11.1291C27.6868 9.87114 27.4874 9.01248 27.197 8.26115C26.8942 7.48398 26.4904 6.82473 25.8332 6.16793C25.1759 5.51065 24.5186 5.10693 23.7407 4.80536C22.9874 4.51315 22.1282 4.31399 20.8703 4.25638C19.6099 4.19902 19.2086 4.185 15.9985 4.185H16.0022ZM14.9422 6.31441C15.2568 6.31392 15.6078 6.31441 16.0022 6.31441C19.1571 6.31441 19.5311 6.32574 20.777 6.38236C21.9291 6.43504 22.5544 6.62754 22.9709 6.78927C23.5223 7.00345 23.9155 7.25947 24.3288 7.67305C24.7424 8.08662 24.9984 8.48051 25.213 9.03194C25.3748 9.44797 25.5675 10.0732 25.62 11.2253C25.6766 12.471 25.6889 12.8452 25.6889 15.9987C25.6889 19.1522 25.6766 19.5264 25.62 20.772C25.5673 21.9241 25.3748 22.5494 25.213 22.9654C24.9989 23.5168 24.7424 23.9095 24.3288 24.3228C23.9152 24.7364 23.5226 24.9924 22.9709 25.2066C22.5548 25.3691 21.9291 25.5611 20.777 25.6138C19.5313 25.6704 19.1571 25.6827 16.0022 25.6827C12.847 25.6827 12.473 25.6704 11.2274 25.6138C10.0753 25.5606 9.45 25.3681 9.03323 25.2064C8.48179 24.9922 8.08791 24.7362 7.67434 24.3226C7.26076 23.909 7.00475 23.5161 6.79008 22.9644C6.62835 22.5484 6.43559 21.9231 6.38315 20.771C6.32653 19.5254 6.31521 19.1512 6.31521 15.9957C6.31521 12.8402 6.32653 12.468 6.38315 11.2224C6.43583 10.0703 6.62835 9.44501 6.79008 9.02848C7.00425 8.47705 7.26076 8.08318 7.67434 7.66961C8.08791 7.25603 8.48179 7 9.03323 6.78534C9.44975 6.62286 10.0753 6.43085 11.2274 6.37793C12.3174 6.32869 12.7399 6.31392 14.9422 6.31145V6.31441ZM22.3097 8.27642C21.5268 8.27642 20.8917 8.91081 20.8917 9.69389C20.8917 10.4767 21.5268 11.1119 22.3097 11.1119C23.0925 11.1119 23.7276 10.4767 23.7276 9.69389C23.7276 8.91106 23.0925 8.27592 22.3097 8.27592V8.27642ZM16.0022 9.93317C12.651 9.93317 9.93398 12.6502 9.93398 16.0014C9.93398 19.3526 12.651 22.0684 16.0022 22.0684C19.3533 22.0684 22.0694 19.3526 22.0694 16.0014C22.0694 12.6502 19.3531 9.93317 16.0019 9.93317H16.0022ZM16.0022 12.0626C18.1774 12.0626 19.941 13.8259 19.941 16.0014C19.941 18.1766 18.1774 19.9402 16.0022 19.9402C13.8267 19.9402 12.0634 18.1766 12.0634 16.0014C12.0634 13.8259 13.8267 12.0626 16.0022 12.0626Z" fill="white"/>
<defs>
<radialGradient id="paint0_radial_35_5" cx="0" cy="0" r="1" gradientUnits="userSpaceOnUse" gradientTransform="translate(8.50236 34.4647) rotate(-90) scale(31.7144 29.5049)">
<stop stop-color="#FFDD55"/>
<stop offset="0.1" stop-color="#FFDD55"/>
<stop offset="0.5" stop-color="#FF543E"/>
<stop offset="1" stop-color="#C837AB"/>
</radialGradient>
<radialGradient id="paint1_radial_35_5" cx="0" cy="0" r="1" gradientUnits="userSpaceOnUse" gradientTransform="translate(-5.36163 2.30522) rotate(78.6776) scale(14.1766 58.4513)">
<stop stop-color="#3771C8"/>
<stop offset="0.128" stop-color="#3771C8"/>
<stop offset="1" stop-color="#6600FF" stop-opacity="0"/>
</radialGradient>
</defs>
</svg>
