<svg width="300" height="300" viewBox="0 0 300 300" fill="none" xmlns="http://www.w3.org/2000/svg">
<path fill-rule="evenodd" clip-rule="evenodd" d="M150 0.5C232.566 0.5 299.5 67.435 299.5 150.002C299.5 232.566 232.566 299.5 150 299.5C67.434 299.5 0.5 232.566 0.5 150.002C0.5 67.435 67.434 0.5 150 0.5Z" fill="white"/>
<path fill-rule="evenodd" clip-rule="evenodd" d="M150 8.49899C228.149 8.49899 291.499 71.853 291.499 149.999C291.499 228.151 228.149 291.504 150 291.504C71.851 291.505 8.50003 228.151 8.50003 150C8.50003 71.853 71.851 8.49899 150 8.49899ZM150 4.75699C230.213 4.75699 295.241 69.785 295.241 149.999C295.241 230.215 230.213 295.245 150 295.245C69.783 295.245 4.75903 230.216 4.75903 150C4.75903 69.785 69.783 4.75699 150 4.75699Z" fill="#006437"/>
<path fill-rule="evenodd" clip-rule="evenodd" d="M221.258 47.161L222.938 51.059L220.072 54.179L224.275 53.777L226.342 57.482L227.259 53.336L231.403 52.503L227.764 50.343L228.256 46.123L225.091 48.937L221.258 47.161ZM233.611 61.005L234.776 66.112L230.602 69.244L235.791 69.711L237.461 74.669L239.506 69.85L244.716 69.782L240.788 66.339L242.332 61.337L237.865 64.028L233.611 61.005ZM244.186 78.735L244.26 85.487L238.149 88.288L244.556 90.301L245.315 97.014L249.201 91.506L255.779 92.854L251.773 87.435L255.081 81.559L248.719 83.717L244.186 78.735ZM251.756 101.426L249.713 109.808L241.262 111.318L248.56 115.865L247.374 124.409L253.925 118.838L261.643 122.611L258.401 114.621L264.354 108.405L255.794 109.042L251.756 101.426ZM48.219 101.426L50.263 109.808L58.713 111.318L51.42 115.865L52.603 124.409L46.053 118.838L38.335 122.611L41.579 114.621L35.625 108.405L44.183 109.042L48.219 101.426ZM55.792 78.735L55.718 85.487L61.828 88.288L55.42 90.301L54.663 97.014L50.778 91.506L44.2 92.854L48.206 87.435L44.897 81.559L51.259 83.717L55.792 78.735ZM66.365 61.005L65.201 66.112L69.374 69.244L64.186 69.711L62.514 74.669L60.47 69.85L55.262 69.782L59.187 66.339L57.643 61.337L62.111 64.028L66.365 61.005ZM78.722 47.161L77.042 51.059L79.907 54.179L75.703 53.777L73.636 57.482L72.719 53.336L68.577 52.503L72.215 50.343L71.72 46.123L74.886 48.937L78.722 47.161ZM238.165 143.037C239.283 140.616 240.273 138.093 241.232 135.475C238.61 135.011 236.495 134.641 234.45 134.278C229.5 133.485 226.234 135.112 224.626 137.287C223.014 139.464 222.01 141.516 220.84 144.481C219.67 147.445 219.741 152.872 228.1 156.597C235.378 159.958 240.834 163.314 252.385 153.455C259.155 148.005 261.732 149.848 264.207 150.358C267.749 151.549 268.12 152.983 267.428 156.702C266.5 161.299 261.306 158.859 258.81 157.878C257.854 161.535 256.85 164.34 255.238 168.282C256.748 168.915 258.632 169.771 260.325 170.485C268.022 173.571 276.704 171.896 278.721 162.577C279.929 156.318 279.561 153.272 279.561 152.184C279.451 146.393 275.193 141.248 267.821 139.922C260.63 138.478 255.831 138.083 245.771 145.65C240.609 149.477 239.753 150.921 235.073 149.063C232.581 148.118 230.192 147.278 231.588 144.359C232.651 142.12 233.755 141.738 238.165 143.037ZM223.918 171.249L246.518 180.519C244.763 184.034 243.898 185.824 241.484 189.442L223.918 171.249ZM211.797 156.774C209.882 158.784 207.907 160.881 205.629 162.858L254.715 224.476C257.661 220.441 260.684 215.603 263.216 211.095L249.789 197.695C252.679 193.007 253.935 190.326 256.297 184.845L271.57 191.506C273.287 187.074 274.613 183.021 275.539 178.75L211.797 156.774ZM206.941 207.779C212.338 204.275 215.607 201.518 208.945 193.71L201.513 184.335C196.977 178.141 194.332 181.49 190.934 183.051L206.941 207.779ZM218.352 258.99L179.139 178.827C184.175 176.982 188.437 174.88 192.698 172.358C198.095 168.882 202.598 172.408 207.129 176.591L218.59 187.25C229.45 197.354 227.485 204.889 225.074 207.316L253.579 226.041C250.491 230.309 247.451 234.048 244.019 237.605L216.198 215.135L212.955 217.33L233.719 247.698C229.211 251.647 223.515 255.794 218.352 258.99ZM168.788 181.958C171.642 181.282 173.513 180.772 176.201 179.881L212.817 262.329C207.858 265.042 201.768 268.04 195.629 270.335L168.788 181.958ZM166.02 182.523C160.286 183.539 156.994 183.966 149.503 184.027L147.56 278.533C162.296 278.925 177.281 276.517 189.98 272.284L185.75 256.315C178.951 258.495 172.32 260.115 165.712 260.709L161.964 228.431C168.801 227.701 172.529 226.877 177.402 225.289L174.16 213.27C169.618 214.577 165.264 215.279 160.506 215.823L157.87 193.012C161.431 192.907 165.159 192.286 168.443 191.451L166.02 182.523ZM76.996 255.613L119.183 178.075C121.66 179.096 124.476 180.002 126.984 180.749L122.359 220.687C123.619 217.8 138.02 183.275 138.02 183.127C140.217 183.483 144.402 183.862 146.237 183.94L140.566 278.198C135.736 278.067 128.285 276.947 123.017 275.7L131.066 228.129L110.822 260.615L110.309 221.11C108.633 226.12 91.898 264.431 91.898 264.574C85.908 261.511 81.011 258.446 76.996 255.613ZM50.137 230.522L104.596 170.42C104.391 170.37 109.519 173.526 111.982 174.779L69.927 230.56C74.327 234.925 75.992 236.304 81.353 240.334L73.731 253.283C65.734 247.529 55.24 237.305 50.137 230.522ZM79.025 172.342L54.692 182.495C56.519 186.076 58.276 188.87 60.72 192.107L79.025 172.342ZM89.619 157.923C91.588 159.976 94.024 162.293 96.427 164.33L48.4 228.388C45.326 224.373 42.155 219.628 39.546 215.226L53.002 200.706C50.037 196.235 47.411 192.439 44.984 186.745L29.417 193.6C27.685 189.079 26.223 184.071 25.503 180.606L89.619 157.923ZM67.806 142.254L50.553 146.941C50.762 148.454 51.031 149.586 51.487 151.099C52.739 155.233 54.674 155.166 59.529 153.397L65.84 151.042C68.367 149.913 70.891 148.776 69.56 145.896C68.693 144.322 67.806 142.175 67.806 142.254ZM73.253 132.587C74.35 135.453 77.6 141.703 78.933 143.775C82.211 148.797 80.04 154.511 73.925 157.643L61.401 164.029C55.426 167.006 44.103 165.682 41.962 157.665C41.005 154.931 40.565 152.768 39.915 149.841L22.008 154.832C21.584 148.351 21.528 147.219 21.912 141.701L73.253 132.587ZM150 25.36C191.522 25.36 225.181 59.019 225.181 100.542C225.181 142.063 191.523 175.719 150 175.719C108.479 175.719 74.82 142.063 74.82 100.542C74.82 59.02 108.479 25.36 150 25.36ZM150 12.566C225.903 12.566 287.433 74.096 287.433 150C287.433 225.906 225.904 287.436 150 287.436C74.096 287.436 12.567 225.905 12.567 150C12.567 74.096 74.097 12.566 150 12.566Z" fill="#006437"/>
<path fill-rule="evenodd" clip-rule="evenodd" d="M205.645 60.634C173.028 52.989 153.12 35.321 150.007 32.183C146.967 35.293 126.401 53.215 94.4569 60.634C93.8239 130.459 145.454 166.345 150.007 169.41C154.538 166.384 206.103 131.76 205.645 60.634ZM150.827 31.042C168.678 47.071 189.081 55.343 206.069 59.351C193.531 42.385 173.48 31.31 150.827 31.042ZM93.8999 59.376C110.372 55.52 130.586 47.032 149.143 31.042C126.486 31.315 106.431 42.398 93.8999 59.376ZM148.804 170.365C113.473 145.763 92.0299 102.217 93.0029 60.617C85.0169 71.957 80.3199 85.782 80.3199 100.707C80.3199 138.79 110.874 169.728 148.804 170.365ZM207.029 60.689C208.043 102.53 187.371 145.406 151.221 170.365C189.133 169.706 219.664 138.775 219.664 100.706C219.665 85.812 214.988 72.012 207.029 60.689ZM149.993 29.21C189.386 29.21 221.328 61.145 221.328 100.545C221.328 139.94 189.386 171.876 149.993 171.876C110.597 171.876 78.6589 139.939 78.6589 100.545C78.6589 61.145 110.597 29.21 149.993 29.21Z" fill="#006437"/>
<path d="M129.771 87.432V68.391C129.771 64.673 125.478 63.671 121.997 63.883C125.428 58.419 130.517 56.593 135.392 60.728C138.662 56.14 146.675 49.803 154.194 50.034C187.916 50.557 189.374 98.956 165.526 107.621C142.437 116.012 138.866 86.371 153.297 87.389C162.698 88.205 159.743 103.904 151.284 98.971C154.581 108.6 175.706 98.745 164.938 79.8C172.083 72.519 165.876 57.994 155.367 57.849C146.457 57.725 142.725 66.08 142.693 71.745L142.688 125.354C142.581 134.844 143.928 142.246 151.754 146.378C143.841 150.086 135.611 144.706 134.159 136.584C130.755 138.015 127.173 137.023 124.308 132.422C127.24 132.041 129.802 130.113 129.77 125.58V94.988L125.834 91.281L129.771 87.432ZM124.632 62.632C127.311 62.537 131.153 64.464 131.153 68.377V87.951L127.765 91.282L131.153 94.412V126.03C131.153 128.243 130.652 131.717 126.722 133.221C129.582 136.678 132.272 136.049 135.364 134.341C136.023 143.866 143.616 147.009 148.641 145.936C142.065 141.109 141.365 133.462 141.311 126.818V71.616C141.308 66.177 145.064 56.538 155.395 56.562C166.941 56.587 173.336 71.729 166.559 79.798C178.354 101.621 150.19 112.579 149.34 96.116C158.512 103.96 160.658 89.303 153.077 88.683C140.723 87.67 144.503 114.591 165.572 106.148C187.408 97.213 186.395 52.141 154.194 51.3C146.78 51.106 139.994 56.983 135.563 62.725C132.127 59.322 128.548 58.459 124.632 62.632ZM155.37 158.493H144.659C147.358 160.706 149.292 162.052 150.032 162.517C150.715 162.052 152.646 160.712 155.37 158.493ZM160.666 153.887H139.41C141.068 155.434 142.606 156.781 143.969 157.923H156.062C157.438 156.78 158.989 155.434 160.666 153.887ZM165.308 149.363H134.816C136.197 150.796 137.532 152.114 138.802 153.316H161.282C162.561 152.114 163.91 150.796 165.308 149.363ZM165.268 98.145H166.901C166.79 98.337 166.674 98.529 166.559 98.713H164.802C164.961 98.529 165.117 98.34 165.268 98.145ZM157.809 98.145H165.268C165.118 98.34 164.961 98.529 164.802 98.713H157.311C157.49 98.538 157.657 98.351 157.809 98.145ZM157.218 98.145H157.809C157.658 98.351 157.491 98.538 157.311 98.713H156.241C156.609 98.593 156.938 98.395 157.218 98.145ZM167.546 93.456H168.552C168.52 93.648 168.481 93.837 168.443 94.027H167.388C167.445 93.837 167.498 93.645 167.546 93.456ZM159.102 93.456H167.546C167.498 93.645 167.445 93.837 167.388 94.027H159.116C159.118 93.834 159.112 93.645 159.102 93.456ZM158.344 93.456H159.102C159.113 93.645 159.119 93.835 159.116 94.027H158.432C158.409 93.834 158.382 93.645 158.344 93.456ZM145.055 93.456H145.67C145.618 93.643 145.57 93.832 145.53 94.027H144.928C144.967 93.832 145.01 93.642 145.055 93.456ZM142.691 93.456H145.055C145.01 93.643 144.967 93.832 144.929 94.027H142.691V93.456ZM141.76 93.456H142.691V94.027H141.757L141.76 93.456ZM167.929 88.914H168.729C168.746 89.106 168.756 89.293 168.767 89.482H167.959C167.954 89.293 167.943 89.106 167.929 88.914ZM157.049 88.914H167.929C167.944 89.106 167.954 89.293 167.959 89.482H157.6C157.428 89.282 157.245 89.09 157.049 88.914ZM154.89 88.914H157.049C157.245 89.09 157.428 89.282 157.6 89.482H155.851C155.555 89.269 155.236 89.076 154.89 88.914ZM147.833 88.914H149.893C149.46 89.071 149.064 89.266 148.696 89.482H147.204C147.4 89.282 147.611 89.087 147.833 88.914ZM142.691 88.914H147.833C147.612 89.087 147.4 89.282 147.204 89.482H142.692V88.914H142.691ZM141.765 88.914H142.691V89.482H141.765V88.914ZM166.974 84.285H167.817C167.875 84.477 167.929 84.666 167.982 84.856H167.158C167.102 84.669 167.036 84.477 166.974 84.285ZM142.691 84.285H166.974C167.037 84.477 167.102 84.669 167.158 84.856H142.692V84.285H142.691ZM141.774 84.285H142.691V84.856H141.774V84.285ZM165.049 79.68H166.207C166.155 79.741 166.103 79.802 166.052 79.859C166.117 79.991 166.175 80.12 166.238 80.252H165.186C165.104 80.101 165.028 79.95 164.94 79.799C164.978 79.76 165.011 79.722 165.049 79.68ZM142.694 79.68H165.049C165.011 79.722 164.978 79.761 164.94 79.799C165.028 79.95 165.104 80.101 165.186 80.252H142.694V79.68ZM141.782 79.68H142.694V80.252H141.782V79.68ZM167.613 75.057H168.524C168.483 75.246 168.437 75.436 168.382 75.625H167.447C167.509 75.436 167.564 75.246 167.613 75.057ZM142.694 75.057H167.613C167.564 75.246 167.509 75.436 167.448 75.625H142.694V75.057V75.057ZM141.791 75.057H142.694V75.625H141.791V75.057ZM167.923 70.45H168.735C168.754 70.639 168.772 70.832 168.789 71.018H167.976C167.965 70.832 167.943 70.639 167.923 70.45ZM142.761 70.45H167.923C167.944 70.639 167.965 70.832 167.976 71.018H142.716C142.727 70.834 142.743 70.642 142.761 70.45ZM141.825 70.45H142.762C142.744 70.642 142.727 70.834 142.716 71.018H141.799C141.801 70.834 141.81 70.642 141.825 70.45ZM166.628 65.823H167.498C167.578 66.01 167.654 66.202 167.728 66.394H166.874C166.794 66.202 166.715 66.01 166.628 65.823ZM143.918 65.823H166.628C166.715 66.01 166.794 66.202 166.875 66.394H143.697C143.767 66.202 143.84 66.015 143.918 65.823ZM142.949 65.823H143.918C143.84 66.015 143.767 66.202 143.697 66.394H142.721C142.794 66.202 142.871 66.015 142.949 65.823ZM163.359 61.219H164.67C164.831 61.406 164.985 61.595 165.136 61.787H163.926C163.741 61.595 163.556 61.403 163.359 61.219ZM146.899 61.219H163.359C163.555 61.403 163.741 61.595 163.925 61.787H146.37C146.542 61.595 146.716 61.403 146.899 61.219ZM145.966 61.219H146.899C146.716 61.403 146.542 61.595 146.371 61.787H145.449C145.615 61.595 145.786 61.406 145.966 61.219ZM150.938 107.376H154.505C155.493 107.67 156.553 107.868 157.684 107.944H152.05C151.666 107.771 151.296 107.579 150.938 107.376ZM142.691 107.376H150.939C151.296 107.579 151.667 107.772 152.051 107.944H142.691V107.376V107.376ZM141.734 107.376H142.691V107.944H141.731L141.734 107.376ZM146.418 102.75H147.815C147.962 102.942 148.116 103.132 148.277 103.319H146.756C146.638 103.131 146.525 102.942 146.418 102.75ZM142.691 102.75H146.419C146.526 102.942 146.638 103.132 146.756 103.319H142.691V102.75ZM141.742 102.75H142.691V103.319H141.74L141.742 102.75ZM144.854 98.145H145.634C145.679 98.332 145.726 98.524 145.782 98.713H144.953C144.918 98.524 144.883 98.332 144.854 98.145ZM142.691 98.145H144.855C144.884 98.332 144.918 98.524 144.954 98.713H142.691V98.145V98.145ZM141.752 98.145H142.691V98.713H141.749L141.752 98.145ZM165.895 52.558H164.967C164.434 52.354 163.89 52.159 163.33 51.989H164.559C165.017 52.168 165.458 52.356 165.895 52.558ZM172.679 57.163H172.407C172.199 56.97 171.987 56.778 171.771 56.592H172.055C172.262 56.78 172.477 56.966 172.679 57.163ZM176.509 61.787H176.331C176.204 61.598 176.083 61.406 175.948 61.219H176.122C176.252 61.408 176.383 61.598 176.509 61.787ZM178.97 66.394H178.787C178.705 66.202 178.618 66.015 178.536 65.823H178.716C178.802 66.015 178.888 66.202 178.97 66.394ZM180.548 71.018H180.324C180.276 70.831 180.223 70.639 180.171 70.45H180.392C180.443 70.639 180.496 70.832 180.548 71.018ZM181.43 75.625H181.16C181.138 75.436 181.112 75.244 181.089 75.057H181.352C181.377 75.244 181.404 75.436 181.43 75.625ZM181.712 80.251H181.396C181.399 80.059 181.399 79.873 181.399 79.679H181.712C181.714 79.873 181.712 80.06 181.712 80.251ZM181.43 84.856H181.067C181.089 84.667 181.119 84.477 181.141 84.285H181.495C181.476 84.477 181.451 84.667 181.43 84.856ZM180.548 89.482H180.134C180.189 89.293 180.242 89.104 180.287 88.914H180.687C180.639 89.104 180.595 89.293 180.548 89.482ZM179.01 94.026H178.544C178.623 93.834 178.711 93.645 178.79 93.455H179.241C179.164 93.645 179.089 93.837 179.01 94.026ZM176.503 98.713H175.943C176.069 98.526 176.201 98.334 176.325 98.145H176.877C176.757 98.337 176.625 98.524 176.503 98.713ZM172.591 103.318H171.746C171.968 103.134 172.187 102.944 172.406 102.749H173.194C173 102.945 172.796 103.131 172.591 103.318ZM164.577 107.944H159.957C161.067 107.87 162.237 107.683 163.459 107.376H166.147C165.938 107.456 165.736 107.543 165.527 107.62C165.205 107.738 164.889 107.846 164.577 107.944ZM142.691 112.552H141.723L141.725 111.981H142.69V112.552H142.691ZM142.688 117.175H141.717V116.604H142.69L142.688 117.175ZM142.688 121.783H141.709V121.211H142.688V121.783ZM142.681 126.296H141.701V125.725H142.684C142.681 125.917 142.681 126.106 142.681 126.296ZM142.848 130.901H141.702L141.692 130.818V130.332H142.807C142.817 130.522 142.831 130.715 142.848 130.901ZM143.545 135.527H142.547C142.495 135.338 142.445 135.148 142.399 134.959H143.419C143.458 135.151 143.5 135.338 143.545 135.527ZM145.264 140.132H144.285C144.189 139.945 144.097 139.753 144.007 139.561H144.967C145.061 139.756 145.159 139.946 145.264 140.132ZM149.222 144.761H147.698C147.496 144.574 147.301 144.387 147.111 144.19H148.522C148.747 144.382 148.98 144.574 149.222 144.761ZM138.238 144.19H139.477C139.679 144.387 139.89 144.574 140.106 144.761H138.884C138.665 144.577 138.447 144.387 138.238 144.19ZM135.041 139.561H136.286C136.369 139.75 136.458 139.942 136.554 140.132H135.294C135.207 139.946 135.121 139.756 135.041 139.561ZM126.308 134.959H127.563C127.853 135.156 128.151 135.346 128.464 135.527H126.943C126.729 135.352 126.516 135.165 126.308 134.959ZM128.344 130.333H130.008C129.984 130.487 129.955 130.629 129.922 130.764C129.89 130.81 129.859 130.858 129.825 130.902H127.803C127.995 130.728 128.175 130.536 128.344 130.333ZM129.771 125.725H130.122L130.12 126.296H129.752C129.764 126.112 129.769 125.922 129.771 125.725ZM129.771 121.211H130.128V121.783H129.771V121.211ZM129.771 116.604H130.136V117.175H129.771V116.604ZM129.771 111.98H130.145L130.142 112.551H129.771V111.98ZM129.771 107.376H130.151V107.944H129.771V107.376ZM129.771 102.75H130.159V103.319H129.771V102.75ZM129.771 98.145H130.168L130.165 98.713H129.771V98.145ZM128.143 93.456H128.982L129.484 94.027H128.748L128.143 93.456ZM129.771 84.285H130.154V84.856H129.771V84.285ZM129.771 79.68H130.165V80.252H129.771V79.68ZM129.771 75.057H130.176L130.174 75.625H129.772V75.057H129.771ZM129.771 70.45H130.184V71.018H129.771V70.45ZM128.83 65.823H130.05C130.104 66.002 130.142 66.194 130.166 66.394H129.249C129.127 66.188 128.987 65.999 128.83 65.823ZM124.081 61.219H125.023C124.852 61.4 124.682 61.59 124.514 61.787H123.55C123.724 61.592 123.901 61.4 124.081 61.219ZM139.199 56.592H140.838C140.632 56.78 140.428 56.969 140.229 57.163H138.575C138.777 56.972 138.984 56.78 139.199 56.592ZM146.045 51.988H147.601C147.194 52.16 146.793 52.353 146.396 52.557H144.929C145.296 52.359 145.67 52.168 146.045 51.988ZM161.59 47.93H138.136C136.103 49.238 133.836 50.607 131.36 51.989H146.046C145.671 52.169 145.297 52.36 144.93 52.558H130.326C127.833 53.915 125.137 55.278 122.253 56.593H139.2C138.986 56.781 138.779 56.973 138.575 57.164H120.984C117.743 58.601 114.276 59.973 110.607 61.22H124.083C123.903 61.401 123.726 61.593 123.552 61.788H108.886C106.098 62.688 103.196 63.512 100.193 64.229C100.191 64.764 100.193 65.294 100.198 65.824H128.831C128.989 66 129.129 66.189 129.249 66.395H100.206C100.229 67.76 100.27 69.114 100.335 70.451H129.773V71.019H100.364C100.434 72.38 100.528 73.726 100.643 75.058H129.772V75.626H100.689C100.814 76.993 100.959 78.347 101.123 79.681H129.772V80.253H101.195C101.369 81.615 101.566 82.96 101.783 84.287H129.772V84.858H101.879C102.109 86.229 102.359 87.582 102.632 88.916H128.352H129.957H130.174L129.594 89.484H129.232H127.744H102.75C103.03 90.827 103.332 92.153 103.649 93.457H128.143L128.748 94.028H103.793C104.141 95.424 104.513 96.793 104.902 98.147H129.771V98.715H105.068C105.47 100.083 105.895 101.428 106.337 102.751H129.771V103.32H106.528C106.997 104.698 107.484 106.049 107.99 107.378H129.771V107.946H108.21C108.739 109.316 109.289 110.664 109.855 111.982H129.772V112.553H110.103C110.704 113.934 111.323 115.285 111.961 116.605H129.772V117.176H112.237C112.905 118.554 113.592 119.897 114.295 121.212H129.772V121.784H114.6C115.33 123.129 116.073 124.445 116.829 125.726H129.771C129.769 125.923 129.763 126.113 129.751 126.297H117.167C117.993 127.68 118.831 129.026 119.68 130.333H128.343C128.174 130.537 127.994 130.729 127.802 130.902H120.051C120.971 132.299 121.902 133.652 122.836 134.96H126.308C126.516 135.166 126.729 135.353 126.943 135.528H123.243C124.255 136.928 125.269 138.271 126.281 139.562H135.04C135.121 139.757 135.206 139.947 135.292 140.133H126.731C127.857 141.552 128.983 142.905 130.09 144.191H138.236C138.445 144.388 138.663 144.578 138.882 144.762H130.588C131.836 146.19 133.067 147.535 134.269 148.796H165.854C167.065 147.536 168.303 146.191 169.567 144.762H149.22C148.978 144.575 148.745 144.383 148.519 144.191H170.065C171.182 142.906 172.311 141.553 173.448 140.133H145.261C145.156 139.946 145.058 139.757 144.964 139.562H173.897C174.919 138.271 175.941 136.929 176.957 135.528H143.543C143.498 135.339 143.457 135.152 143.417 134.96H177.368C178.304 133.653 179.237 132.299 180.154 130.902H142.846C142.829 130.715 142.816 130.523 142.804 130.333H180.529C181.378 129.026 182.217 127.68 183.048 126.297H142.679C142.679 126.107 142.679 125.918 142.682 125.726H183.381C184.14 124.447 184.881 123.132 185.609 121.784H142.687V121.212H185.916C186.617 119.897 187.303 118.554 187.968 117.176H142.687L142.689 116.605H188.241C188.876 115.285 189.494 113.934 190.092 112.553H142.689V111.982H190.335C190.899 110.664 191.446 109.315 191.971 107.946H164.575C164.887 107.847 165.203 107.74 165.524 107.622C165.733 107.545 165.935 107.457 166.144 107.378H192.19C192.689 106.049 193.171 104.698 193.634 103.32H172.588C172.793 103.133 172.997 102.946 173.192 102.751H193.826C194.263 101.428 194.682 100.083 195.078 98.715H176.501C176.623 98.526 176.755 98.339 176.875 98.147H195.243C195.628 96.793 195.995 95.424 196.339 94.028H179.01C179.089 93.839 179.164 93.647 179.241 93.457H196.478C196.793 92.153 197.09 90.827 197.364 89.484H180.548C180.595 89.295 180.639 89.106 180.688 88.916H197.48C197.747 87.582 197.994 86.228 198.22 84.858H181.43C181.451 84.669 181.476 84.479 181.494 84.287H198.309C198.524 82.96 198.712 81.615 198.885 80.253H181.711C181.711 80.061 181.713 79.875 181.711 79.681H198.951C199.11 78.347 199.253 76.993 199.368 75.626H181.43C181.405 75.437 181.377 75.245 181.352 75.058H199.419C199.527 73.726 199.616 72.381 199.683 71.019H180.548C180.496 70.832 180.444 70.64 180.392 70.451H199.71C199.771 69.114 199.808 67.76 199.825 66.395H178.97C178.888 66.203 178.802 66.016 178.716 65.824H199.831C199.836 65.294 199.836 64.764 199.836 64.229C196.749 63.507 193.79 62.683 190.961 61.788H176.509C176.383 61.599 176.252 61.409 176.122 61.22H189.205C185.449 59.97 181.937 58.595 178.676 57.164H172.679C172.477 56.967 172.262 56.781 172.055 56.593H177.396C174.489 55.275 171.793 53.913 169.316 52.558H165.895C165.458 52.356 165.017 52.168 164.56 51.989H168.289C165.82 50.607 163.585 49.238 161.59 47.93ZM155.112 43.325H144.768C143.169 44.533 141.243 45.904 139.016 47.363H160.729C158.545 45.904 156.666 44.53 155.112 43.325ZM145.516 42.757H154.385C152.128 40.959 150.647 39.59 150.006 38.928C149.382 39.585 147.853 40.957 145.516 42.757ZM201.179 63.22C202.428 101.72 182.657 141.826 150.006 164.435C118.132 142.189 97.6409 101.473 98.8479 63.227C113.651 59.781 133.235 52.18 150.003 37.057C166.117 52.232 185.894 59.624 201.179 63.22Z" fill="#006437"/>
</svg>
