<svg width="428" height="528" viewBox="0 0 428 528" fill="none" xmlns="http://www.w3.org/2000/svg">
<path fill-rule="evenodd" clip-rule="evenodd" d="M214 519.031C275.183 493.189 327.479 451.209 364.148 395.644C399.387 342.326 419.816 278.998 419.816 213.933V8.32212H214H8.18445V213.933C8.18445 278.998 28.6128 342.326 63.8517 395.644C100.521 451.209 152.817 493.189 214 519.031Z" fill="#070308" stroke="white" stroke-width="15.1302"/>
<path fill-rule="evenodd" clip-rule="evenodd" d="M199.292 23.4391H24.0165V179.307H199.292V23.4391ZM403.984 70.22H214V132.118H403.984V70.22ZM72.6359 379.812H355.364C367.519 360.303 377.631 339.568 385.394 317.914H42.6062C50.369 339.568 60.481 360.303 72.6359 379.812ZM24.0165 194.118V213.423C24.0165 227.723 25.0379 242.022 27.0807 256.016H400.919C402.962 241.92 403.984 227.723 403.984 213.423V194.118H24.0165ZM214 502.075C247.911 487.571 278.758 466.836 305.213 441.812H122.787C149.242 466.938 180.089 487.571 214 502.075Z" fill="#C3281E"/>
<path fill-rule="evenodd" clip-rule="evenodd" d="M113.697 144.681V133.956C106.853 137.123 98.4777 138.144 91.0214 137.225C70.1845 134.569 56.8039 117.818 56.8039 97.0833C56.8039 78.085 69.0609 60.2102 88.3657 60.2102C96.1285 60.2102 103.483 63.8872 106.751 72.8757C109.815 66.1344 110.224 51.6303 107.67 45.2975C105.934 45.093 104.095 45.093 102.257 45.093C94.6985 45.093 87.3443 46.5229 81.2158 48.6679C66.9159 53.5707 54.7611 64.4999 47.509 77.7783C42.6062 86.7668 40.4612 94.836 34.8434 94.836C41.2784 122.925 61.5025 146.315 91.5321 147.95C98.8863 148.154 106.24 147.133 113.697 144.681V144.681ZM102.257 41.9268C126.056 41.9268 142.297 55.0009 142.297 78.9021C142.297 87.7884 139.539 96.5726 133.41 102.905H144.646C157.209 90.1377 154.962 74.2036 163.44 74.2036C151.694 44.8889 135.351 30.6912 98.7841 31.6105C87.7529 31.7125 82.4415 31.8149 73.3508 28.5462L79.9901 45.8082C86.2208 43.561 94.1878 41.9268 102.257 41.9268V41.9268ZM94.392 150.912C89.7956 150.912 85.0972 150.401 80.6029 149.278C80.6029 159.185 78.3558 163.68 74.168 166.744C79.3772 172.158 92.8599 174.507 103.993 171.34C96.7413 166.846 94.392 159.696 94.392 150.912V150.912ZM169.262 100.148C166.811 103.212 163.44 105.867 155.269 105.867H130.55V68.0751H138.007C136.985 63.9894 135.147 60.3123 133.002 57.0437H129.733C123.4 57.0437 117.476 56.1245 111.245 53.7752L116.659 67.9729V105.663C123.298 107.808 127.792 111.69 132.593 116.695H147.608C156.086 116.695 159.456 122.414 158.741 130.279C173.756 122.414 171.203 105.05 169.262 100.148V100.148ZM130.55 151.116V142.128C126.771 136.306 122.175 129.666 116.761 125.274V149.482C116.761 158.266 114.412 163.68 110.224 166.54C115.433 171.953 128.916 174.302 140.049 171.136C132.797 166.846 130.55 158.573 130.55 151.116ZM183.97 49.5874C181.417 54.1838 176.718 57.0437 168.138 57.0437H158.026C160.171 60.4145 162.112 64.0915 164.053 68.0751C172.122 68.0751 174.471 76.6549 173.348 81.6599C188.771 73.795 185.911 54.4902 183.97 49.5874ZM152.204 146.213C144.952 138.246 137.904 124.457 125.035 113.835C116.148 106.48 104.198 104.948 94.2899 104.948V64.0915C89.5914 62.7637 85.0972 63.0701 80.5008 64.2956V131.403C84.8929 133.241 89.5914 134.365 94.2899 134.569V116.286C110.633 116.286 118.089 120.576 126.362 131.198C135.147 142.434 146.484 164.394 157.209 171.851C163.542 170.625 177.433 160.717 178.557 147.95C170.079 154.078 160.171 154.895 152.204 146.213V146.213Z" fill="white"/>
</svg>
