<svg width="32" height="32" viewBox="0 0 32 32" fill="none" xmlns="http://www.w3.org/2000/svg">
<path d="M13.3333 31.8222C5.77778 30.4889 0 23.9111 0 16C0 7.2 7.2 0 16 0C24.8 0 32 7.2 32 16C32 23.9111 26.2222 30.4889 18.6667 31.8222L17.7778 31.1111H14.2222L13.3333 31.8222Z" fill="url(#paint0_linear_35_3)"/>
<path d="M22.2222 20.4444L22.9333 15.9999H18.6666V12.8888C18.6666 11.6444 19.1111 10.6666 21.0666 10.6666H23.1111V6.57772C21.9555 6.39995 20.7111 6.22217 19.5555 6.22217C15.9111 6.22217 13.3333 8.44439 13.3333 12.4444V15.9999H9.33331V20.4444H13.3333V31.7333C14.2222 31.9111 15.1111 32 16 32C16.8889 32 17.7778 31.9111 18.6666 31.7333V20.4444H22.2222Z" fill="url(#paint1_linear_35_3)"/>
<defs>
<linearGradient id="paint0_linear_35_3" x1="16" y1="30.8924" x2="16" y2="0" gradientUnits="userSpaceOnUse">
<stop stop-color="#0062E0"/>
<stop offset="1" stop-color="#19AFFF"/>
</linearGradient>
<linearGradient id="paint1_linear_35_3" x1="16.2222" y1="31.2468" x2="16.2222" y2="6.22217" gradientUnits="userSpaceOnUse">
<stop stop-color="white"/>
<stop offset="1" stop-color="white"/>
</linearGradient>
</defs>
</svg>
