<svg xmlns="http://www.w3.org/2000/svg" viewBox="0 0 37.5 45">
    <defs>
        <style>
            .cls-1 {
                fill: #820b0b;
            }

            .cls-2 {
                fill: #e8e8e8;
            }

            .cls-3 {
                fill: #1d1d1d;
            }
        </style>
    </defs>
    <g id="Camada_2" data-name="Camada 2">
        <g id="futflix">
            <g id="logo">
                <path class="cls-1"
                    d="M35.82,19.41,5,.48A3.36,3.36,0,0,0,0,3.57V41.43a3.36,3.36,0,0,0,5,3.09L35.82,25.59A3.68,3.68,0,0,0,35.82,19.41Z" />
                <path class="cls-2"
                    d="M7.5,22.47a15,15,0,0,0,29.73,2.87h0A15,15,0,1,0,7.77,19.67a11.82,11.82,0,0,0-.18,1.17A14.84,14.84,0,0,0,7.5,22.47Z" />
                <polygon class="cls-3"
                    points="17.29 25.11 10.47 25.09 10.47 30.34 15.93 34.5 20.74 31.05 17.29 25.11" />
                <polygon class="cls-3"
                    points="23.48 11.61 18.21 16.04 20.78 22.41 27.64 21.93 29.31 15.26 23.48 11.61" />
                <path class="cls-3" d="M7.59,20.83l3.51-.25,1.55-6.18-1.94-1.2A15,15,0,0,0,7.59,20.83Z" />
                <path class="cls-3" d="M31.42,31.05l2.33,1.34a14.89,14.89,0,0,0,3.48-7h0l-.5-1.82-4.35.73Z" />
                <path class="cls-3" d="M15.05,9.44l2.23.73,1.65-2.28A15.14,15.14,0,0,0,15.05,9.44Z" />
                <path class="cls-3" d="M33.2,12v4.38l3.44,1.12A14.92,14.92,0,0,0,33.2,12Z" />
            </g>
        </g>
    </g>
</svg>